<svg xmlns="http://www.w3.org/2000/svg" viewBox="0 0 872 203" width="872" height="203" fill="none" role="img" aria-label="AHAD QURESHI - Senior Full Stack Developer"><style>rect{width:6px;height:6px;rx:2;opacity:0;transform-box:fill-box;transform-origin:50% 50%}.v0{animation:pop0 11.0s cubic-bezier(.22,1,.36,1) infinite}@keyframes pop0{0%{opacity:0;transform:translate(0px,-9px) scale(.3)}4.55%{opacity:1;transform:translate(0,0) scale(1)}84%{opacity:1;transform:translate(0,0) scale(1)}95%{opacity:0;transform:scale(.4)}100%{opacity:0;transform:scale(.3)}}.v1{animation:pop1 11.0s cubic-bezier(.22,1,.36,1) infinite}@keyframes pop1{0%{opacity:0;transform:translate(0px,9px) scale(.3)}4.55%{opacity:1;transform:translate(0,0) scale(1)}84%{opacity:1;transform:translate(0,0) scale(1)}95%{opacity:0;transform:scale(.4)}100%{opacity:0;transform:scale(.3)}}.v2{animation:pop2 11.0s cubic-bezier(.22,1,.36,1) infinite}@keyframes pop2{0%{opacity:0;transform:translate(0px,0px) scale(.3)}4.55%{opacity:1;transform:translate(0,0) scale(1)}84%{opacity:1;transform:translate(0,0) scale(1)}95%{opacity:0;transform:scale(.4)}100%{opacity:0;transform:scale(.3)}}.d0{animation-delay:0.000s}.d1{animation-delay:0.023s}.d2{animation-delay:0.046s}.d3{animation-delay:0.069s}.d4{animation-delay:0.093s}.d5{animation-delay:0.116s}.d6{animation-delay:0.139s}.d7{animation-delay:0.162s}.d8{animation-delay:0.185s}.d9{animation-delay:0.208s}.d10{animation-delay:0.232s}.d11{animation-delay:0.255s}.d12{animation-delay:0.278s}.d13{animation-delay:0.301s}.d14{animation-delay:0.324s}.d15{animation-delay:0.347s}.d16{animation-delay:0.371s}.d17{animation-delay:0.394s}.d18{animation-delay:0.417s}.d19{animation-delay:0.440s}.d20{animation-delay:0.463s}.d21{animation-delay:0.486s}.d22{animation-delay:0.509s}.d23{animation-delay:0.533s}.d24{animation-delay:0.556s}.d25{animation-delay:0.579s}.d26{animation-delay:0.602s}.d27{animation-delay:0.625s}.d28{animation-delay:0.648s}.d29{animation-delay:0.672s}.d30{animation-delay:0.695s}.d31{animation-delay:0.718s}.d32{animation-delay:0.741s}.d33{animation-delay:0.764s}.d34{animation-delay:0.787s}.d35{animation-delay:0.811s}.d36{animation-delay:0.834s}.d37{animation-delay:0.857s}.d38{animation-delay:0.880s}.d39{animation-delay:0.903s}.d40{animation-delay:0.926s}.d41{animation-delay:0.949s}.d42{animation-delay:0.973s}.d43{animation-delay:0.996s}.d44{animation-delay:1.019s}.d45{animation-delay:1.042s}.d46{animation-delay:1.065s}.d47{animation-delay:1.088s}.d48{animation-delay:1.112s}.d49{animation-delay:1.135s}.d50{animation-delay:1.158s}.d51{animation-delay:1.181s}.d52{animation-delay:1.204s}.d53{animation-delay:1.227s}.d54{animation-delay:1.251s}.d55{animation-delay:1.274s}.d56{animation-delay:1.297s}.d57{animation-delay:1.320s}.d58{animation-delay:1.343s}.d59{animation-delay:1.366s}.d60{animation-delay:1.389s}.d61{animation-delay:1.413s}.d62{animation-delay:1.436s}.d63{animation-delay:1.459s}.d64{animation-delay:1.482s}.d65{animation-delay:1.505s}.d66{animation-delay:1.528s}.d67{animation-delay:1.552s}.d68{animation-delay:1.575s}.d69{animation-delay:1.598s}.d70{animation-delay:1.621s}.d71{animation-delay:1.644s}.d72{animation-delay:1.667s}.d73{animation-delay:1.691s}.d74{animation-delay:1.714s}.d75{animation-delay:1.737s}.d76{animation-delay:1.760s}.d77{animation-delay:1.783s}.d78{animation-delay:1.806s}.d79{animation-delay:1.829s}.d80{animation-delay:1.853s}.d81{animation-delay:1.876s}.d82{animation-delay:1.899s}.d83{animation-delay:1.922s}.d84{animation-delay:1.945s}.d85{animation-delay:1.968s}.d86{animation-delay:1.992s}.d87{animation-delay:2.015s}.d88{animation-delay:2.038s}.d89{animation-delay:2.061s}.d90{animation-delay:2.084s}.d91{animation-delay:2.107s}.d92{animation-delay:2.131s}.d93{animation-delay:2.154s}.d94{animation-delay:2.177s}.d95{animation-delay:2.200s}.t{font-family:ui-monospace,'SF Mono',SFMono-Regular,Menlo,Consolas,'Liberation Mono',monospace;opacity:0;animation:fade 11.0s ease-in-out infinite}@keyframes fade{0%,24%{opacity:0}32%{opacity:1}84%{opacity:1}95%{opacity:0}100%{opacity:0}}.t2{animation-delay:.35s}.cur{animation:blink 1.05s steps(1) infinite,fade 11.0s ease-in-out infinite}@keyframes blink{50%{opacity:0}}</style><g transform="translate(30,30)"><g fill="#3480f7"><rect x="21" y="0" class="v2 d9"/><rect x="28" y="0" class="v1 d17"/><rect x="35" y="0" class="v2 d11"/><rect x="42" y="0" class="v2 d7"/><rect x="21" y="7" class="v0 d8"/><rect x="28" y="7" class="v2 d4"/><rect x="35" y="7" class="v0 d14"/><rect x="42" y="7" class="v1 d14"/><rect x="21" y="14" class="v2 d2"/><rect x="28" y="14" class="v0 d4"/><rect x="35" y="14" class="v2 d7"/><rect x="42" y="14" class="v2 d5"/><rect x="49" y="14" class="v1 d16"/><rect x="21" y="21" class="v1 d18"/><rect x="28" y="21" class="v1 d11"/><rect x="35" y="21" class="v2 d7"/><rect x="42" y="21" class="v1 d18"/><rect x="49" y="21" class="v0 d13"/><rect x="21" y="28" class="v0 d12"/><rect x="42" y="28" class="v2 d8"/><rect x="49" y="28" class="v1 d15"/><rect x="21" y="35" class="v2 d13"/><rect x="42" y="35" class="v1 d6"/><rect x="49" y="35" class="v0 d21"/><rect x="21" y="42" class="v0 d2"/><rect x="28" y="42" class="v0 d11"/><rect x="35" y="42" class="v2 d16"/><rect x="42" y="42" class="v0 d6"/><rect x="49" y="42" class="v1 d15"/><rect x="21" y="49" class="v2 d10"/><rect x="28" y="49" class="v1 d8"/><rect x="35" y="49" class="v1 d10"/><rect x="42" y="49" class="v1 d17"/><rect x="49" y="49" class="v1 d16"/><rect x="21" y="56" class="v1 d14"/><rect x="49" y="56" class="v0 d6"/><rect x="49" y="63" class="v0 d20"/></g><g fill="#3980f7"><rect x="84" y="0" class="v2 d16"/><rect x="84" y="7" class="v0 d18"/><rect x="84" y="14" class="v0 d12"/><rect x="84" y="21" class="v2 d15"/><rect x="84" y="28" class="v1 d23"/><rect x="56" y="35" class="v0 d7"/><rect x="84" y="35" class="v1 d20"/><rect x="56" y="42" class="v1 d13"/><rect x="84" y="42" class="v1 d11"/><rect x="56" y="49" class="v2 d13"/><rect x="84" y="49" class="v2 d9"/><rect x="56" y="56" class="v1 d7"/><rect x="63" y="56" class="v2 d17"/><rect x="84" y="56" class="v0 d24"/><rect x="56" y="63" class="v1 d10"/><rect x="63" y="63" class="v2 d10"/><rect x="84" y="63" class="v0 d14"/></g><g fill="#3e7ff7"><rect x="91" y="0" class="v0 d22"/><rect x="98" y="0" class="v0 d17"/><rect x="91" y="7" class="v1 d25"/><rect x="98" y="7" class="v0 d23"/><rect x="91" y="14" class="v0 d15"/><rect x="98" y="14" class="v0 d21"/><rect x="91" y="21" class="v1 d16"/><rect x="98" y="21" class="v0 d17"/><rect x="91" y="28" class="v0 d19"/><rect x="98" y="28" class="v0 d13"/><rect x="105" y="28" class="v0 d25"/><rect x="112" y="28" class="v0 d26"/><rect x="119" y="28" class="v1 d23"/><rect x="91" y="35" class="v2 d16"/><rect x="98" y="35" class="v0 d10"/><rect x="105" y="35" class="v0 d21"/><rect x="112" y="35" class="v1 d12"/><rect x="119" y="35" class="v1 d16"/><rect x="91" y="42" class="v0 d17"/><rect x="98" y="42" class="v0 d23"/><rect x="91" y="49" class="v1 d24"/><rect x="98" y="49" class="v2 d22"/><rect x="91" y="56" class="v0 d19"/><rect x="98" y="56" class="v2 d24"/><rect x="91" y="63" class="v2 d11"/><rect x="98" y="63" class="v1 d23"/></g><g fill="#437ef7"><rect x="126" y="0" class="v2 d13"/><rect x="133" y="0" class="v2 d23"/><rect x="140" y="0" class="v1 d30"/><rect x="126" y="7" class="v0 d27"/><rect x="133" y="7" class="v1 d23"/><rect x="140" y="7" class="v2 d29"/><rect x="126" y="14" class="v1 d21"/><rect x="133" y="14" class="v1 d24"/><rect x="140" y="14" class="v0 d22"/><rect x="126" y="21" class="v0 d15"/><rect x="133" y="21" class="v0 d20"/><rect x="140" y="21" class="v1 d16"/><rect x="126" y="28" class="v1 d18"/><rect x="133" y="28" class="v1 d27"/><rect x="140" y="28" class="v2 d22"/><rect x="126" y="35" class="v2 d21"/><rect x="133" y="35" class="v2 d19"/><rect x="140" y="35" class="v0 d23"/><rect x="126" y="42" class="v1 d25"/><rect x="133" y="42" class="v2 d26"/><rect x="140" y="42" class="v0 d27"/><rect x="126" y="49" class="v0 d18"/><rect x="133" y="49" class="v0 d26"/><rect x="140" y="49" class="v2 d28"/><rect x="126" y="56" class="v0 d24"/><rect x="133" y="56" class="v0 d17"/><rect x="140" y="56" class="v0 d21"/><rect x="126" y="63" class="v0 d12"/><rect x="133" y="63" class="v2 d26"/><rect x="140" y="63" class="v2 d15"/></g><g fill="#487ef7"><rect x="182" y="0" class="v2 d28"/><rect x="189" y="0" class="v2 d29"/><rect x="182" y="7" class="v0 d21"/><rect x="189" y="7" class="v2 d20"/><rect x="175" y="14" class="v2 d22"/><rect x="182" y="14" class="v2 d21"/><rect x="189" y="14" class="v0 d25"/><rect x="175" y="21" class="v0 d28"/><rect x="182" y="21" class="v2 d25"/><rect x="189" y="21" class="v2 d33"/><rect x="175" y="28" class="v1 d19"/><rect x="182" y="28" class="v0 d28"/><rect x="168" y="35" class="v2 d27"/><rect x="175" y="35" class="v2 d18"/><rect x="182" y="35" class="v0 d29"/><rect x="168" y="42" class="v2 d23"/><rect x="175" y="42" class="v0 d21"/><rect x="182" y="42" class="v2 d23"/><rect x="189" y="42" class="v2 d32"/><rect x="168" y="49" class="v2 d27"/><rect x="175" y="49" class="v0 d23"/><rect x="182" y="49" class="v1 d31"/><rect x="189" y="49" class="v0 d34"/><rect x="161" y="56" class="v2 d30"/><rect x="168" y="56" class="v2 d19"/><rect x="175" y="56" class="v2 d19"/><rect x="161" y="63" class="v1 d30"/><rect x="168" y="63" class="v2 d26"/><rect x="175" y="63" class="v0 d30"/></g><g fill="#4d7df7"><rect x="196" y="0" class="v2 d19"/><rect x="203" y="0" class="v0 d20"/><rect x="196" y="7" class="v0 d35"/><rect x="203" y="7" class="v1 d31"/><rect x="196" y="14" class="v1 d34"/><rect x="203" y="14" class="v1 d23"/><rect x="210" y="14" class="v0 d23"/><rect x="196" y="21" class="v2 d33"/><rect x="203" y="21" class="v1 d27"/><rect x="210" y="21" class="v2 d30"/><rect x="203" y="28" class="v2 d21"/><rect x="210" y="28" class="v1 d31"/><rect x="203" y="35" class="v0 d26"/><rect x="210" y="35" class="v0 d26"/><rect x="217" y="35" class="v2 d35"/><rect x="196" y="42" class="v2 d24"/><rect x="203" y="42" class="v0 d32"/><rect x="210" y="42" class="v1 d27"/><rect x="217" y="42" class="v1 d30"/><rect x="196" y="49" class="v0 d23"/><rect x="203" y="49" class="v1 d36"/><rect x="210" y="49" class="v1 d32"/><rect x="217" y="49" class="v1 d24"/><rect x="203" y="56" class="v2 d26"/><rect x="210" y="56" class="v1 d33"/><rect x="217" y="56" class="v2 d33"/><rect x="224" y="56" class="v1 d33"/><rect x="210" y="63" class="v1 d23"/><rect x="217" y="63" class="v0 d29"/><rect x="224" y="63" class="v0 d30"/></g><g fill="#527cf7"><rect x="245" y="0" class="v0 d26"/><rect x="252" y="0" class="v1 d34"/><rect x="259" y="0" class="v2 d30"/><rect x="245" y="7" class="v2 d38"/><rect x="252" y="7" class="v0 d25"/><rect x="259" y="7" class="v0 d26"/><rect x="245" y="14" class="v0 d32"/><rect x="252" y="14" class="v1 d36"/><rect x="259" y="14" class="v0 d39"/><rect x="245" y="21" class="v0 d25"/><rect x="252" y="21" class="v2 d31"/><rect x="259" y="21" class="v2 d30"/><rect x="245" y="28" class="v2 d25"/><rect x="252" y="28" class="v1 d35"/><rect x="259" y="28" class="v2 d33"/><rect x="245" y="35" class="v0 d34"/><rect x="252" y="35" class="v1 d31"/><rect x="259" y="35" class="v2 d32"/><rect x="245" y="42" class="v0 d38"/><rect x="252" y="42" class="v1 d33"/><rect x="259" y="42" class="v1 d34"/><rect x="245" y="49" class="v1 d32"/><rect x="252" y="49" class="v0 d40"/><rect x="259" y="49" class="v2 d33"/><rect x="245" y="56" class="v1 d26"/><rect x="252" y="56" class="v1 d36"/><rect x="259" y="56" class="v1 d30"/><rect x="245" y="63" class="v0 d33"/><rect x="252" y="63" class="v0 d30"/><rect x="259" y="63" class="v2 d29"/></g><g fill="#577bf7"><rect x="266" y="0" class="v2 d40"/><rect x="273" y="0" class="v1 d30"/><rect x="280" y="0" class="v2 d35"/><rect x="266" y="7" class="v1 d34"/><rect x="273" y="7" class="v2 d30"/><rect x="280" y="7" class="v1 d33"/><rect x="287" y="7" class="v2 d41"/><rect x="294" y="7" class="v2 d36"/><rect x="273" y="14" class="v1 d34"/><rect x="280" y="14" class="v1 d42"/><rect x="287" y="14" class="v2 d34"/><rect x="294" y="14" class="v1 d36"/><rect x="280" y="21" class="v0 d36"/><rect x="287" y="21" class="v2 d36"/><rect x="294" y="21" class="v2 d32"/><rect x="287" y="28" class="v0 d42"/><rect x="294" y="28" class="v0 d36"/><rect x="287" y="35" class="v1 d34"/><rect x="294" y="35" class="v1 d34"/><rect x="280" y="42" class="v1 d41"/><rect x="287" y="42" class="v0 d32"/><rect x="294" y="42" class="v0 d29"/><rect x="266" y="49" class="v2 d27"/><rect x="273" y="49" class="v0 d29"/><rect x="280" y="49" class="v1 d42"/><rect x="287" y="49" class="v1 d28"/><rect x="294" y="49" class="v0 d43"/><rect x="266" y="56" class="v2 d35"/><rect x="273" y="56" class="v1 d37"/><rect x="280" y="56" class="v0 d41"/><rect x="287" y="56" class="v2 d29"/><rect x="266" y="63" class="v0 d41"/><rect x="273" y="63" class="v0 d37"/><rect x="280" y="63" class="v0 d39"/></g><g fill="#6679f7"><rect x="371" y="0" class="v2 d37"/><rect x="378" y="0" class="v2 d41"/><rect x="385" y="0" class="v0 d54"/><rect x="392" y="0" class="v1 d50"/><rect x="399" y="0" class="v2 d51"/><rect x="371" y="7" class="v0 d52"/><rect x="378" y="7" class="v2 d40"/><rect x="385" y="7" class="v2 d48"/><rect x="392" y="7" class="v1 d48"/><rect x="399" y="7" class="v0 d42"/><rect x="371" y="14" class="v1 d50"/><rect x="378" y="14" class="v0 d51"/><rect x="385" y="14" class="v1 d48"/><rect x="392" y="14" class="v1 d47"/><rect x="399" y="14" class="v2 d49"/><rect x="371" y="21" class="v1 d40"/><rect x="399" y="21" class="v2 d42"/><rect x="371" y="28" class="v0 d39"/><rect x="399" y="28" class="v0 d41"/><rect x="371" y="35" class="v0 d40"/><rect x="399" y="35" class="v2 d51"/><rect x="371" y="42" class="v0 d41"/><rect x="399" y="42" class="v2 d42"/><rect x="371" y="49" class="v2 d45"/><rect x="378" y="49" class="v2 d48"/><rect x="385" y="49" class="v1 d45"/><rect x="392" y="49" class="v1 d41"/><rect x="399" y="49" class="v1 d45"/><rect x="371" y="56" class="v0 d46"/><rect x="378" y="56" class="v1 d39"/><rect x="385" y="56" class="v1 d37"/><rect x="392" y="56" class="v0 d48"/><rect x="399" y="56" class="v0 d40"/><rect x="378" y="63" class="v1 d43"/><rect x="385" y="63" class="v1 d47"/><rect x="392" y="63" class="v2 d43"/><rect x="399" y="63" class="v2 d54"/><rect x="399" y="70" class="v1 d48"/></g><g fill="#7178f7"><rect x="441" y="0" class="v0 d47"/><rect x="448" y="0" class="v0 d52"/><rect x="455" y="0" class="v1 d50"/><rect x="441" y="7" class="v1 d47"/><rect x="448" y="7" class="v0 d47"/><rect x="455" y="7" class="v1 d47"/><rect x="441" y="14" class="v1 d43"/><rect x="448" y="14" class="v0 d47"/><rect x="455" y="14" class="v2 d57"/><rect x="441" y="21" class="v0 d51"/><rect x="448" y="21" class="v1 d52"/><rect x="455" y="21" class="v2 d53"/><rect x="441" y="28" class="v2 d44"/><rect x="448" y="28" class="v0 d51"/><rect x="455" y="28" class="v1 d49"/><rect x="441" y="35" class="v1 d49"/><rect x="448" y="35" class="v0 d56"/><rect x="455" y="35" class="v2 d53"/><rect x="441" y="42" class="v2 d54"/><rect x="448" y="42" class="v2 d53"/><rect x="455" y="42" class="v1 d59"/><rect x="441" y="49" class="v1 d50"/><rect x="448" y="49" class="v1 d58"/><rect x="455" y="49" class="v0 d55"/><rect x="462" y="49" class="v0 d52"/><rect x="469" y="49" class="v0 d52"/><rect x="448" y="56" class="v0 d50"/><rect x="455" y="56" class="v1 d49"/><rect x="462" y="56" class="v0 d60"/><rect x="469" y="56" class="v0 d56"/><rect x="455" y="63" class="v2 d58"/><rect x="462" y="63" class="v1 d51"/><rect x="469" y="63" class="v0 d47"/></g><g fill="#7677f7"><rect x="483" y="0" class="v0 d53"/><rect x="490" y="0" class="v0 d61"/><rect x="497" y="0" class="v0 d51"/><rect x="483" y="7" class="v0 d55"/><rect x="490" y="7" class="v0 d48"/><rect x="497" y="7" class="v1 d63"/><rect x="483" y="14" class="v0 d48"/><rect x="490" y="14" class="v2 d58"/><rect x="497" y="14" class="v1 d59"/><rect x="483" y="21" class="v0 d48"/><rect x="490" y="21" class="v0 d59"/><rect x="497" y="21" class="v1 d64"/><rect x="483" y="28" class="v1 d54"/><rect x="490" y="28" class="v2 d54"/><rect x="497" y="28" class="v2 d54"/><rect x="483" y="35" class="v0 d62"/><rect x="490" y="35" class="v0 d61"/><rect x="497" y="35" class="v1 d55"/><rect x="483" y="42" class="v1 d55"/><rect x="490" y="42" class="v0 d55"/><rect x="497" y="42" class="v2 d54"/><rect x="476" y="49" class="v1 d62"/><rect x="483" y="49" class="v2 d63"/><rect x="490" y="49" class="v0 d60"/><rect x="476" y="56" class="v1 d60"/><rect x="483" y="56" class="v1 d54"/><rect x="490" y="56" class="v2 d58"/><rect x="476" y="63" class="v2 d61"/><rect x="483" y="63" class="v2 d52"/></g><g fill="#7b77f7"><rect x="518" y="0" class="v2 d58"/><rect x="525" y="0" class="v0 d57"/><rect x="532" y="0" class="v0 d61"/><rect x="539" y="0" class="v1 d65"/><rect x="518" y="7" class="v2 d61"/><rect x="525" y="7" class="v0 d59"/><rect x="532" y="7" class="v0 d61"/><rect x="539" y="7" class="v1 d60"/><rect x="518" y="14" class="v2 d66"/><rect x="525" y="14" class="v1 d54"/><rect x="532" y="14" class="v2 d55"/><rect x="518" y="21" class="v1 d57"/><rect x="525" y="21" class="v1 d55"/><rect x="532" y="21" class="v1 d59"/><rect x="518" y="28" class="v0 d62"/><rect x="525" y="28" class="v1 d53"/><rect x="532" y="28" class="v1 d57"/><rect x="539" y="28" class="v0 d59"/><rect x="518" y="35" class="v0 d54"/><rect x="525" y="35" class="v0 d51"/><rect x="532" y="35" class="v2 d67"/><rect x="539" y="35" class="v0 d67"/><rect x="518" y="42" class="v0 d65"/><rect x="525" y="42" class="v1 d52"/><rect x="532" y="42" class="v2 d51"/><rect x="539" y="42" class="v1 d58"/><rect x="518" y="49" class="v0 d61"/><rect x="525" y="49" class="v1 d66"/><rect x="532" y="49" class="v1 d66"/><rect x="518" y="56" class="v2 d56"/><rect x="525" y="56" class="v0 d56"/><rect x="532" y="56" class="v2 d62"/><rect x="518" y="63" class="v0 d57"/><rect x="525" y="63" class="v0 d56"/><rect x="532" y="63" class="v2 d56"/></g><g fill="#8076f7"><rect x="546" y="0" class="v1 d58"/><rect x="553" y="0" class="v1 d59"/><rect x="546" y="7" class="v0 d64"/><rect x="553" y="7" class="v2 d53"/><rect x="560" y="7" class="v0 d55"/><rect x="567" y="7" class="v1 d67"/><rect x="553" y="14" class="v1 d53"/><rect x="560" y="14" class="v0 d63"/><rect x="567" y="14" class="v1 d57"/><rect x="553" y="21" class="v1 d60"/><rect x="560" y="21" class="v0 d63"/><rect x="567" y="21" class="v2 d58"/><rect x="546" y="28" class="v0 d63"/><rect x="553" y="28" class="v0 d62"/><rect x="560" y="28" class="v0 d59"/><rect x="546" y="35" class="v0 d69"/><rect x="553" y="35" class="v0 d63"/><rect x="546" y="42" class="v2 d66"/><rect x="553" y="42" class="v1 d63"/><rect x="560" y="42" class="v2 d63"/><rect x="546" y="49" class="v2 d66"/><rect x="553" y="49" class="v0 d60"/><rect x="560" y="49" class="v1 d61"/><rect x="567" y="49" class="v2 d57"/><rect x="553" y="56" class="v1 d62"/><rect x="560" y="56" class="v1 d59"/><rect x="567" y="56" class="v1 d60"/><rect x="553" y="63" class="v2 d68"/><rect x="560" y="63" class="v1 d60"/><rect x="567" y="63" class="v1 d67"/></g><g fill="#8575f7"><rect x="588" y="0" class="v0 d69"/><rect x="595" y="0" class="v2 d59"/><rect x="602" y="0" class="v0 d59"/><rect x="609" y="0" class="v1 d66"/><rect x="588" y="7" class="v0 d59"/><rect x="595" y="7" class="v2 d58"/><rect x="602" y="7" class="v0 d64"/><rect x="609" y="7" class="v2 d74"/><rect x="588" y="14" class="v2 d70"/><rect x="595" y="14" class="v2 d69"/><rect x="602" y="14" class="v0 d66"/><rect x="609" y="14" class="v2 d65"/><rect x="588" y="21" class="v1 d57"/><rect x="595" y="21" class="v0 d59"/><rect x="602" y="21" class="v0 d58"/><rect x="588" y="28" class="v2 d70"/><rect x="595" y="28" class="v2 d72"/><rect x="602" y="28" class="v2 d74"/><rect x="609" y="28" class="v2 d69"/><rect x="588" y="35" class="v1 d57"/><rect x="595" y="35" class="v0 d65"/><rect x="602" y="35" class="v1 d72"/><rect x="609" y="35" class="v0 d67"/><rect x="588" y="42" class="v0 d66"/><rect x="595" y="42" class="v1 d59"/><rect x="602" y="42" class="v1 d73"/><rect x="588" y="49" class="v2 d59"/><rect x="595" y="49" class="v1 d74"/><rect x="602" y="49" class="v0 d67"/><rect x="609" y="49" class="v0 d61"/><rect x="588" y="56" class="v1 d58"/><rect x="595" y="56" class="v1 d61"/><rect x="602" y="56" class="v0 d71"/><rect x="609" y="56" class="v0 d69"/><rect x="595" y="63" class="v0 d72"/><rect x="602" y="63" class="v1 d62"/><rect x="609" y="63" class="v1 d63"/></g><g fill="#8a74f7"><rect x="616" y="0" class="v2 d62"/><rect x="623" y="0" class="v2 d63"/><rect x="616" y="7" class="v0 d72"/><rect x="623" y="7" class="v1 d73"/><rect x="644" y="14" class="v0 d77"/><rect x="644" y="21" class="v2 d66"/><rect x="616" y="28" class="v1 d69"/><rect x="623" y="28" class="v1 d74"/><rect x="616" y="35" class="v0 d65"/><rect x="623" y="35" class="v1 d71"/><rect x="644" y="49" class="v0 d62"/><rect x="616" y="56" class="v2 d63"/><rect x="623" y="56" class="v2 d75"/><rect x="630" y="56" class="v2 d64"/><rect x="644" y="56" class="v0 d70"/><rect x="616" y="63" class="v1 d76"/><rect x="623" y="63" class="v2 d72"/></g><g fill="#8f74f7"><rect x="658" y="0" class="v2 d66"/><rect x="665" y="0" class="v1 d77"/><rect x="672" y="0" class="v0 d76"/><rect x="679" y="0" class="v0 d72"/><rect x="651" y="7" class="v2 d69"/><rect x="658" y="7" class="v0 d71"/><rect x="665" y="7" class="v1 d79"/><rect x="672" y="7" class="v0 d81"/><rect x="679" y="7" class="v2 d80"/><rect x="651" y="14" class="v2 d70"/><rect x="658" y="14" class="v1 d70"/><rect x="665" y="14" class="v2 d72"/><rect x="651" y="21" class="v2 d67"/><rect x="658" y="21" class="v2 d69"/><rect x="665" y="21" class="v1 d72"/><rect x="651" y="28" class="v0 d67"/><rect x="658" y="28" class="v0 d76"/><rect x="665" y="28" class="v1 d78"/><rect x="672" y="28" class="v1 d67"/><rect x="679" y="28" class="v2 d80"/><rect x="658" y="35" class="v2 d73"/><rect x="665" y="35" class="v1 d74"/><rect x="672" y="35" class="v2 d71"/><rect x="679" y="35" class="v0 d74"/><rect x="672" y="42" class="v0 d78"/><rect x="679" y="42" class="v2 d74"/><rect x="651" y="49" class="v0 d77"/><rect x="672" y="49" class="v2 d71"/><rect x="679" y="49" class="v0 d77"/><rect x="651" y="56" class="v0 d72"/><rect x="658" y="56" class="v2 d80"/><rect x="665" y="56" class="v2 d81"/><rect x="672" y="56" class="v0 d79"/><rect x="679" y="56" class="v0 d75"/><rect x="651" y="63" class="v2 d78"/><rect x="658" y="63" class="v1 d68"/><rect x="665" y="63" class="v0 d80"/><rect x="672" y="63" class="v2 d82"/></g><g fill="#9473f7"><rect x="686" y="0" class="v2 d66"/><rect x="707" y="0" class="v0 d73"/><rect x="714" y="0" class="v1 d72"/><rect x="686" y="7" class="v2 d66"/><rect x="707" y="7" class="v2 d74"/><rect x="714" y="7" class="v0 d69"/><rect x="707" y="14" class="v0 d83"/><rect x="714" y="14" class="v2 d75"/><rect x="707" y="21" class="v0 d80"/><rect x="714" y="21" class="v2 d83"/><rect x="707" y="28" class="v1 d74"/><rect x="714" y="28" class="v1 d82"/><rect x="686" y="35" class="v2 d82"/><rect x="707" y="35" class="v1 d70"/><rect x="714" y="35" class="v1 d71"/><rect x="686" y="42" class="v1 d69"/><rect x="707" y="42" class="v2 d84"/><rect x="714" y="42" class="v1 d83"/><rect x="686" y="49" class="v2 d81"/><rect x="707" y="49" class="v2 d76"/><rect x="714" y="49" class="v2 d79"/><rect x="686" y="56" class="v0 d77"/><rect x="707" y="56" class="v0 d81"/><rect x="714" y="56" class="v2 d73"/><rect x="707" y="63" class="v2 d84"/><rect x="714" y="63" class="v2 d75"/></g><g fill="#9972f7"><rect x="721" y="0" class="v2 d86"/><rect x="721" y="7" class="v2 d71"/><rect x="749" y="7" class="v1 d74"/><rect x="721" y="14" class="v2 d80"/><rect x="721" y="21" class="v0 d74"/><rect x="749" y="21" class="v1 d84"/><rect x="721" y="28" class="v0 d73"/><rect x="728" y="28" class="v1 d71"/><rect x="735" y="28" class="v0 d76"/><rect x="742" y="28" class="v1 d71"/><rect x="749" y="28" class="v2 d89"/><rect x="721" y="35" class="v2 d83"/><rect x="728" y="35" class="v1 d84"/><rect x="735" y="35" class="v2 d75"/><rect x="742" y="35" class="v2 d84"/><rect x="749" y="35" class="v2 d82"/><rect x="721" y="42" class="v2 d70"/><rect x="749" y="42" class="v2 d77"/><rect x="721" y="49" class="v0 d74"/><rect x="721" y="56" class="v1 d76"/><rect x="749" y="56" class="v1 d78"/><rect x="721" y="63" class="v0 d76"/></g><g fill="#9e72f7"><rect x="756" y="0" class="v0 d84"/><rect x="763" y="0" class="v0 d74"/><rect x="756" y="7" class="v2 d88"/><rect x="763" y="7" class="v2 d79"/><rect x="756" y="14" class="v1 d86"/><rect x="763" y="14" class="v2 d81"/><rect x="756" y="21" class="v2 d73"/><rect x="763" y="21" class="v2 d80"/><rect x="756" y="28" class="v1 d74"/><rect x="763" y="28" class="v2 d89"/><rect x="756" y="35" class="v0 d77"/><rect x="763" y="35" class="v0 d77"/><rect x="756" y="42" class="v0 d74"/><rect x="763" y="42" class="v0 d78"/><rect x="756" y="49" class="v2 d80"/><rect x="763" y="49" class="v1 d75"/><rect x="756" y="56" class="v0 d77"/><rect x="763" y="56" class="v2 d81"/><rect x="756" y="63" class="v2 d76"/><rect x="763" y="63" class="v0 d81"/></g><g fill="#a371f7"><rect x="791" y="0" class="v1 d80"/><rect x="798" y="0" class="v2 d77"/><rect x="805" y="0" class="v1 d83"/><rect x="791" y="7" class="v1 d88"/><rect x="798" y="7" class="v2 d84"/><rect x="805" y="7" class="v2 d79"/><rect x="791" y="14" class="v0 d93"/><rect x="798" y="14" class="v2 d89"/><rect x="805" y="14" class="v0 d93"/><rect x="791" y="21" class="v2 d87"/><rect x="798" y="21" class="v2 d80"/><rect x="805" y="21" class="v0 d87"/><rect x="791" y="28" class="v0 d81"/><rect x="798" y="28" class="v2 d88"/><rect x="805" y="28" class="v0 d81"/><rect x="791" y="35" class="v2 d85"/><rect x="798" y="35" class="v2 d92"/><rect x="805" y="35" class="v0 d78"/><rect x="791" y="42" class="v0 d91"/><rect x="798" y="42" class="v2 d77"/><rect x="805" y="42" class="v2 d80"/><rect x="791" y="49" class="v2 d80"/><rect x="798" y="49" class="v1 d84"/><rect x="805" y="49" class="v1 d80"/><rect x="791" y="56" class="v2 d78"/><rect x="798" y="56" class="v2 d86"/><rect x="805" y="56" class="v1 d78"/><rect x="791" y="63" class="v0 d91"/><rect x="798" y="63" class="v0 d86"/><rect x="805" y="63" class="v2 d80"/></g><g fill="#617af7"><rect x="364" y="7" class="v2 d38"/><rect x="357" y="14" class="v2 d46"/><rect x="364" y="14" class="v0 d42"/><rect x="357" y="21" class="v0 d38"/><rect x="364" y="21" class="v2 d51"/><rect x="357" y="28" class="v2 d45"/><rect x="364" y="28" class="v0 d43"/><rect x="357" y="35" class="v1 d44"/><rect x="364" y="35" class="v2 d46"/><rect x="357" y="42" class="v1 d35"/><rect x="364" y="42" class="v2 d43"/><rect x="357" y="49" class="v0 d39"/><rect x="364" y="49" class="v0 d38"/><rect x="364" y="56" class="v2 d36"/></g><g fill="#6c79f7"><rect x="406" y="7" class="v0 d52"/><rect x="406" y="14" class="v0 d39"/><rect x="413" y="14" class="v0 d46"/><rect x="406" y="21" class="v0 d41"/><rect x="413" y="21" class="v0 d50"/><rect x="406" y="28" class="v2 d56"/><rect x="413" y="28" class="v0 d41"/><rect x="406" y="35" class="v0 d40"/><rect x="413" y="35" class="v2 d46"/><rect x="406" y="42" class="v1 d51"/><rect x="413" y="42" class="v1 d55"/><rect x="406" y="49" class="v2 d50"/><rect x="413" y="49" class="v1 d48"/><rect x="406" y="56" class="v0 d41"/><rect x="406" y="63" class="v1 d52"/><rect x="413" y="63" class="v1 d48"/><rect x="406" y="70" class="v0 d39"/><rect x="413" y="70" class="v0 d52"/><rect x="420" y="70" class="v0 d46"/></g><g fill="#2f81f7"><rect x="14" y="21" class="v1 d5"/><rect x="14" y="28" class="v2 d10"/><rect x="14" y="35" class="v1 d8"/><rect x="7" y="42" class="v1 d0"/><rect x="14" y="42" class="v2 d8"/><rect x="7" y="49" class="v1 d14"/><rect x="14" y="49" class="v0 d5"/><rect x="0" y="56" class="v1 d5"/><rect x="7" y="56" class="v1 d1"/><rect x="14" y="56" class="v2 d18"/><rect x="0" y="63" class="v2 d2"/><rect x="7" y="63" class="v1 d17"/><rect x="14" y="63" class="v0 d11"/></g><g fill="#5c7bf7"><rect x="301" y="21" class="v2 d35"/><rect x="301" y="28" class="v2 d29"/><rect x="301" y="35" class="v1 d37"/><rect x="301" y="42" class="v2 d44"/></g></g><text class="t" x="436.0" y="147" text-anchor="middle" fill="#8b949e" font-size="15" letter-spacing="3.6">Senior Full Stack Developer</text><text class="t t2" x="436.0" y="175" text-anchor="middle" fill="#6e7681" font-size="12.5" letter-spacing="1.4">React · Next.js · Node.js · TypeScript · Islamabad, PK<tspan class="cur" fill="#2f81f7">_</tspan></text></svg>